nColumns=19
nRows=72
DataType=double
version=3
OpenSimVersion=4.1
endheader
time	ground_force_1_vx	ground_force_1_vy	ground_force_1_vz	ground_force_1_px	ground_force_1_py	ground_force_1_pz	ground_force_1_mx	ground_force_1_my	ground_force_1_mz	ground_force_2_vx	ground_force_2_vy	ground_force_2_vz	ground_force_2_px	ground_force_2_py	ground_force_2_pz	ground_force_2_mx	ground_force_2_my	ground_force_2_mz
0.81	-4.41402	11.5311	-6.74591	0.90571	0	-0.331719	0	-1.3299	0	0.852977	3.17176	1.8451	-0.000463401	0	-0.000165971	0	0	0
0.82	-22.1731	47.9333	-14.5777	0.909314	0	-0.338912	0	-1.18807	0	-0.321421	2.99867	2.48367	-0.000463401	0	-0.000165971	0	0	0
0.83	-59.1688	145.945	-26.4362	0.926197	0	-0.34277	0	-0.732459	0	-0.785263	2.05253	2.57912	-0.000463401	0	-0.000165971	0	0	0
0.84	-100.407	313.864	-40.1802	0.933762	0	-0.345866	0	-0.138008	0	-1.30542	1.89628	2.47298	-0.000463401	0	-0.000165971	0	0	0
0.85	-110.311	515.315	-52.6615	0.923139	0	-0.350444	-0	0.330253	-0	-2.13321	1.89488	2.02865	-0.000463401	0	-0.000165971	0	0	0
0.86	-89.3518	730.403	-62.0987	0.89714	0	-0.356178	-0	0.445214	-0	-1.91296	1.97279	0.816109	-0.000463401	0	-0.000165971	0	0	0
0.87	-84.6013	958.842	-67.813	0.873503	0	-0.361203	-0	0.140718	-0	1.11222	3.7143	-0.737555	-0.000463401	0	-0.000165971	0	0	0
0.88	-111.697	1175.05	-69.6957	0.858768	0	-0.365583	0	-0.425572	0	2.27129	4.69324	-1.71733	-0.000463401	0	-0.000165971	0	0	0
0.89	-139.525	1351.85	-69.7278	0.84491	0	-0.36979	0	-0.907725	0	0.175141	3.76724	-2.09256	-0.000463401	0	-0.000165971	0	0	0
0.9	-141.546	1488.18	-71.9836	0.827469	0	-0.372808	0	-0.911334	0	0.56425	3.6094	-2.53148	-0.000463401	0	-0.000165971	0	0	0
0.91	-126.225	1593.6	-79.6528	0.809632	0	-0.374026	0	-0.180693	0	3.35619	4.00054	-2.91951	-0.000463401	0	-0.000165971	0	0	0
0.92	-112.921	1671.14	-92.4391	0.794595	0	-0.37386	-0	1.26772	-0	3.54438	3.60548	-2.52803	-0.000463401	0	-0.000165971	0	0	0
0.93	-101.226	1718.05	-107.045	0.781067	0	-0.372881	-0	3.13961	-0	1.80127	3.22325	-1.62687	-0.000463401	0	-0.000165971	0	0	0
0.94	-83.6158	1735.42	-119.401	0.766776	0	-0.371673	-0	4.98144	-0	1.49435	2.62843	-1.23433	-0.000463401	0	-0.000165971	0	0	0
0.95	-62.2627	1727.79	-126.516	0.751638	0	-0.370527	-0	6.35531	-0	2.4707	1.71315	-1.41051	-0.000463401	0	-0.000165971	0	0	0
0.96	-40.5941	1697.53	-127.933	0.736362	0	-0.36949	-0	6.98433	-0	2.6219	1.08524	-1.42071	-0.000463401	0	-0.000165971	0	0	0
0.97	-15.7761	1645.61	-125.28	0.720532	0	-0.368759	-0	6.81011	-0	1.64637	0.793679	-1.05817	-0.000463401	0	-0.000165971	0	0	0
0.98	13.5018	1572.14	-119.492	0.703723	0	-0.368414	-0	5.96215	-0	0.923389	0.927226	-0.657022	-0.000463401	0	-0.000165971	0	0	0
0.99	43.1543	1476.79	-110.225	0.686466	0	-0.368207	-0	4.68526	-0	0.673022	1.37291	-0.401383	-0.000463401	0	-0.000165971	0	0	0
1	69.9361	1360.61	-98.1757	0.66891	0	-0.36802	-0	3.26383	-0	0.527467	1.55187	-0.223257	-0.000463401	0	-0.000165971	0	0	0
1.01	92.4841	1226.99	-85.2107	0.650764	0	-0.368005	-0	1.9532	-0	0.387333	1.36877	-0.0461787	-0.000463401	0	-0.000165971	0	0	0
1.02	108.183	1081.45	-72.3498	0.632608	0	-0.368072	-0	0.92714	-0	0.21385	1.27201	0.135037	-0.000463401	0	-0.000165971	0	0	0
1.03	115.394	930.832	-59.8649	0.614841	0	-0.367801	-0	0.25635	-0	0.0987001	1.2655	0.272406	-0.000463401	0	-0.000165971	0	0	0
1.04	116.153	782.386	-48.4384	0.596698	0	-0.367077	0	-0.083225	0	0.174061	1.26891	0.308388	-0.000463401	0	-0.000165971	0	0	0
1.05	111.868	642.622	-38.3055	0.578023	0	-0.366186	0	-0.183289	0	0.217616	1.39399	0.258168	-0.000463401	0	-0.000165971	0	0	0
1.06	101.41	516.809	-28.5361	0.560637	0	-0.365045	0	-0.161283	0	0.0519756	1.4702	0.184598	-0.000463401	0	-0.000165971	0	0	0
1.07	85.9061	407.972	-18.5856	0.545916	0	-0.363361	0	-0.112312	0	-0.0673506	1.28389	0.111222	-0.000463401	0	-0.000165971	0	0	0
1.08	69.2388	316.61	-9.33064	0.532948	0	-0.361391	0	-0.078692	0	-0.00111492	0.917045	0.0456982	-0.000463401	0	-0.000165971	0	0	0
1.09	53.8825	240.948	-1.9599	0.520766	0	-0.359382	0	-0.052836	0	0.0390182	0.475359	0.0149603	-0.000463401	0	-0.000165971	0	0	0
1.1	40.6493	178.048	2.95744	0.50885	0	-0.356824	0	-0.003494	0	0.0184261	0.188737	0.0373249	-0.000463401	0	-0.000165971	0	0	0
1.11	29.8821	125.71	5.23668	0.496206	0	-0.352547	-0	0.095345	-0	-0.0116932	0.220791	0.119013	-0.000463401	0	-0.000165971	0	0	0
1.12	20.9465	82.2521	5.13122	0.481231	0	-0.346156	-0	0.247242	-0	-0.0905572	0.657045	0.263101	-0.000463401	0	-0.000165971	0	0	0
1.13	12.5022	47.0013	3.69435	0.469271	0	-0.337697	-0	0.43482	-0	-0.27908	1.32364	0.453298	-0.000463401	0	-0.000165971	0	0	0
1.14	4.9517	21.7065	2.20824	0.481205	0	-0.321559	-0	0.637068	-0	-0.437696	1.46025	0.707183	-0.000463401	0	-0.000165971	0	0	0
1.15	0.473941	8.21285	1.21108	0.566425	0	-0.271153	-0	0.84591	-0	-0.582334	1.21759	1.33034	-0.000463401	0	-0.000165971	0	0	0
1.16	-0.681117	3.21505	0.53206	-0.000463401	0	-0.000165971	0	0	0	-2.1982	3.28029	3.29438	-0.000463401	0	-0.000165971	0	0	0
1.17	-0.339498	1.47091	-0.0119822	-0.000463401	0	-0.000165971	0	0	0	-10.4928	16.2962	8.47685	0.939274	0	-0.591883	-0	3.1573	-0
1.18	-0.294577	0.351838	-0.493959	-0.000463401	0	-0.000165971	0	0	0	-36.0159	63.2545	19.1263	0.944776	0	-0.591765	-0	3.54584	-0
1.19	-0.96364	-0.706228	-1.1429	-0.000463401	0	-0.000165971	0	0	0	-81.0814	174.153	35.4348	0.950815	0	-0.589463	-0	3.76035	-0
1.2	-2.36975	-1.93935	-1.90076	-0.000463401	0	-0.000165971	0	0	0	-116.813	346.392	52.4947	0.949739	0	-0.585371	-0	3.91457	-0
1.21	-3.58269	-2.18098	-1.88109	-0.000463401	0	-0.000165971	0	0	0	-110.683	543.23	62.9203	0.932668	0	-0.580911	-0	4.05944	-0
1.22	-0.754417	1.96827	-0.436641	-0.000463401	0	-0.000165971	0	0	0	-88.2493	747.358	66.5458	0.904693	0	-0.57788	-0	4.08889	-0
1.23	3.65853	6.96475	1.05765	0.283579	0	-0.027114	-0	1.02757	-0	-95.9415	945.858	72.4173	0.884696	0	-0.575414	-0	3.79749	-0
1.24	-0.484292	4.65581	0.398037	-0.000463401	0	-0.000165971	0	0	0	-127.01	1116.6	85.2633	0.874821	0	-0.572022	-0	3.05373	-0
1.25	-5.15032	-0.144411	-1.62151	-0.000463401	0	-0.000165971	0	0	0	-143.025	1262.18	98.2434	0.861444	0	-0.568718	-0	1.90883	-0
1.26	-0.93106	2.04116	-1.85181	-0.000463401	0	-0.000165971	0	0	0	-131.132	1404.04	105.16	0.840529	0	-0.566984	-0	0.54435	-0
1.27	1.82154	6.56108	-0.0774646	0.16341	0	0.024514	-0	0.384575	-0	-112.226	1540.45	109.229	0.820913	0	-0.565916	0	-0.842824	0
1.28	-2.27777	5.95045	0.570609	0.356587	0	0.104921	-0	0.236489	-0	-97.9049	1646.49	114.461	0.805422	0	-0.564604	0	-2.09743	0
1.29	-2.4449	3.73152	-0.806203	-0.000463401	0	-0.000165971	0	0	0	-78.8693	1706.84	119.071	0.7891	0	-0.563642	0	-3.10966	0
1.3	0.828028	4.25091	-1.63887	-0.000463401	0	-0.000165971	0	0	0	-53.2737	1723.92	121.081	0.770926	0	-0.563205	0	-3.81533	0
1.31	-1.15905	5.26983	-0.945895	0.0548106	0	0.149614	0	-0.099798	0	-28.869	1706.45	121.289	0.75393	0	-0.562738	0	-4.1926	0
1.32	-3.70253	4.70992	-0.720943	-0.000463401	0	-0.000165971	0	0	0	-3.9775	1660.38	119.154	0.737764	0	-0.562134	0	-4.24961	0
1.33	-1.33441	3.76428	-1.54009	-0.000463401	0	-0.000165971	0	0	0	26.6043	1587.78	113.002	0.720056	0	-0.561627	0	-4.02193	0
1.34	0.51612	3.99932	-1.58286	-0.000463401	0	-0.000165971	0	0	0	59.4133	1491.77	103.841	0.701796	0	-0.561192	0	-3.57658	0
1.35	-1.00901	4.82868	-0.64543	-0.000463401	0	-0.000165971	0	0	0	87.7351	1375.43	93.8142	0.684642	0	-0.560647	0	-2.99931	0
1.36	-1.45243	4.83092	-0.533451	-0.000463401	0	-0.000165971	0	0	0	109.589	1240.14	83.1857	0.667274	0	-0.559944	0	-2.37011	0
1.37	0.272041	4.50962	-1.28644	-0.000463401	0	-0.000165971	0	0	0	125.243	1091.19	71.9392	0.648737	0	-0.559172	0	-1.74796	0
1.38	0.0642236	4.54921	-1.25842	-0.000463401	0	-0.000165971	0	0	0	133.651	938.003	61.0569	0.630589	0	-0.558443	0	-1.16575	0
1.39	-1.88179	4.7543	-0.50548	-0.000463401	0	-0.000165971	0	0	0	134.487	787.758	50.8317	0.613746	0	-0.557935	0	-0.630053	0
1.4	-1.79097	4.33728	-0.389783	-0.000463401	0	-0.000165971	0	0	0	128.124	643.848	40.8459	0.597124	0	-0.557846	0	-0.130749	0
1.41	-0.928718	3.78299	-0.743593	-0.000463401	0	-0.000165971	0	0	0	115.095	510.316	31.5102	0.581687	0	-0.558301	-0	0.34268	-0
1.42	-1.94408	3.36146	-0.486977	-0.000463401	0	-0.000165971	0	0	0	96.7539	392.137	23.2399	0.570422	0	-0.559266	-0	0.788357	-0
1.43	-3.23397	2.90722	0.0828505	-0.000463401	0	-0.000165971	0	0	0	76.7958	292.128	15.3648	0.560557	0	-0.560769	-0	1.1828	-0
1.44	-2.68212	2.59626	0.138376	-0.000463401	0	-0.000165971	0	0	0	58.7835	211.006	7.82694	0.54601	0	-0.562818	-0	1.47566	-0
1.45	-2.24893	2.63144	0.0968058	-0.000463401	0	-0.000165971	0	0	0	44.1119	148.405	2.00488	0.530991	0	-0.565095	-0	1.60121	-0
1.46	-2.93477	2.86932	0.606129	-0.000463401	0	-0.000165971	0	0	0	32.6784	101.55	-1.42067	0.524706	0	-0.567545	-0	1.50844	-0
1.47	-2.76958	2.78532	1.15848	-0.000463401	0	-0.000165971	0	0	0	23.3613	65.7277	-3.16555	0.521606	0	-0.571904	-0	1.18983	-0
1.48	-1.34905	2.57555	1.00766	-0.000463401	0	-0.000165971	0	0	0	14.3974	38.3654	-3.55513	0.525326	0	-0.581569	-0	0.694171	-0
1.49	-0.558386	2.55893	0.238111	-0.000463401	0	-0.000165971	0	0	0	5.72069	19.6204	-2.41	0.579802	0	-0.596584	-0	0.125597	-0
1.5	-1.24345	3.59894	-0.977292	-0.000463401	0	-0.000165971	0	0	0	0.139815	8.97728	-0.526314	0.700635	0	-0.604681	0	-0.373439	0
1.51	-3.32884	7.91006	-3.44736	1.08213	0	-0.202709	0	-2.67891	0	-1.20492	3.53591	0.831419	-0.000463401	0	-0.000165971	0	0	0
1.52	-11.5466	27.022	-8.81585	0.952522	0	-0.301207	0	-2.94742	0	-0.839614	1.03921	1.41722	-0.000463401	0	-0.000165971	0	0	0
